<?xml version="1.0" standalone="no"?>
<!DOCTYPE svg PUBLIC "-//W3C//DTD SVG 20010904//EN"
 "http://www.w3.org/TR/2001/REC-SVG-20010904/DTD/svg10.dtd">
<svg version="1.0" xmlns="http://www.w3.org/2000/svg"
 width="512.000000pt" height="512.000000pt" viewBox="0 0 512.000000 512.000000"
 preserveAspectRatio="xMidYMid meet">
<metadata>
Created by potrace 1.12, written by Peter Selinger 2001-2015
</metadata>
<g transform="translate(0.000000,512.000000) scale(0.100000,-0.100000)"
fill="#000000" stroke="none">
<path d="M0 2560 l0 -2560 2560 0 2560 0 0 2560 0 2560 -2560 0 -2560 0 0
-2560z m1118 1254 c27 -19 52 -65 52 -96 0 -13 -9 -38 -20 -56 -19 -31 -20
-50 -20 -540 l0 -507 26 42 c28 47 96 93 137 93 l27 0 0 -576 0 -577 -40 6
c-23 3 -56 17 -75 32 -59 44 -69 75 -73 217 -3 103 -7 128 -18 128 -30 0 -95
42 -114 73 -19 31 -20 55 -20 799 0 749 0 768 -20 800 -32 52 -27 103 14 144
28 28 41 34 78 34 24 0 54 -7 66 -16z m1700 0 c37 -26 52 -67 52 -144 l0 -70
365 0 c340 0 368 -1 403 -19 20 -11 46 -34 57 -53 20 -32 20 -53 23 -1073 l2
-1040 -22 -44 c-45 -87 47 -81 -1143 -81 -1025 0 -1051 1 -1082 20 -18 10 -41
37 -53 59 -20 40 -20 53 -20 1078 l0 1038 23 39 c43 76 45 76 458 76 l367 0 3
86 c4 82 5 87 37 115 l32 29 238 0 c199 0 241 -3 260 -16z m1322 -11 c43 -38
52 -102 21 -143 l-21 -29 0 -773 0 -773 -25 -37 c-18 -27 -39 -42 -75 -55
l-50 -18 0 -100 c0 -109 -11 -165 -42 -208 -23 -32 -86 -67 -123 -67 l-25 0 0
575 c0 571 0 575 20 575 51 0 113 -46 157 -116 9 -15 12 92 12 489 1 504 1
508 -20 537 -17 23 -21 37 -16 72 8 60 51 98 112 98 35 0 52 -6 75 -27z"/>
<path d="M1480 1980 l0 -230 438 0 c343 1 441 3 454 14 31 23 38 65 38 216 0
151 -7 193 -38 216 -13 11 -111 13 -454 14 l-438 0 0 -230z"/>
<path d="M2734 2185 l-25 -25 3 -186 c3 -181 4 -186 27 -205 22 -18 45 -19
462 -19 l439 0 0 230 0 230 -440 0 -441 0 -25 -25z"/>
</g>
</svg>
